<?xml version="1.0" ?>

<!-- Uploaded to: SVG Repo, www.svgrepo.com, Generator: SVG Repo Mixer Tools -->
<svg width="30px" height="30px" viewBox="0 0 32 32" xmlns="http://www.w3.org/2000/svg">

<defs>

<style>.cls-1{fill:#43c0b9;}.cls-2{fill:#2c9dd2;}</style>

</defs>

<g data-name="37. Teamwork" id="_37._Teamwork">


<path class="cls-2" d="M16.706,16H15.294A2.3,2.3,0,0,1,13,13.706a.294.294,0,0,0-.441-.255,2.294,2.294,0,0,1-3.135-.84l-.7-1.222a2.3,2.3,0,0,1,.84-3.134.295.295,0,0,0,0-.51,2.3,2.3,0,0,1-.84-3.134l.705-1.222a2.294,2.294,0,0,1,3.135-.84A.294.294,0,0,0,13,2.294,2.3,2.3,0,0,1,15.294,0h1.412A2.3,2.3,0,0,1,19,2.294a.284.284,0,0,0,.147.255.291.291,0,0,0,.294,0,2.294,2.294,0,0,1,3.135.84l.7,1.222a2.3,2.3,0,0,1-.84,3.134.295.295,0,0,0,0,.51,2.3,2.3,0,0,1,.84,3.134l-.7,1.222a2.294,2.294,0,0,1-3.135.84.288.288,0,0,0-.294,0,.284.284,0,0,0-.147.255A2.3,2.3,0,0,1,16.706,16Zm-4-4.592A2.3,2.3,0,0,1,15,13.706a.294.294,0,0,0,.294.294h1.412A.294.294,0,0,0,17,13.706a2.294,2.294,0,0,1,3.441-1.987.281.281,0,0,0,.224.029.285.285,0,0,0,.178-.137l.706-1.222a.293.293,0,0,0-.108-.4,2.295,2.295,0,0,1,0-3.974.293.293,0,0,0,.108-.4h0l-.706-1.222a.285.285,0,0,0-.178-.137.289.289,0,0,0-.224.029A2.294,2.294,0,0,1,17,2.294.294.294,0,0,0,16.706,2H15.294A.294.294,0,0,0,15,2.294a2.294,2.294,0,0,1-3.441,1.987.289.289,0,0,0-.224-.029.285.285,0,0,0-.178.137l-.706,1.222a.293.293,0,0,0,.108.4,2.295,2.295,0,0,1,0,3.974.293.293,0,0,0-.108.4l.706,1.222a.285.285,0,0,0,.178.137.28.28,0,0,0,.224-.029A2.292,2.292,0,0,1,12.706,11.408Z"/>

<path class="cls-2" d="M16,10a2,2,0,1,1,2-2A2,2,0,0,1,16,10Zm0-2h0Zm0,0h0Zm0,0h0Zm0,0h0Zm0,0h0Zm0,0h0Zm0,0h0Zm0,0h0Z"/>

</g>

</svg>