<?xml version="1.0" ?>

<!-- Uploaded to: SVG Repo, www.svgrepo.com, Generator: SVG Repo Mixer Tools -->
<svg width="800px" height="800px" viewBox="0 0 32 32" xmlns="http://www.w3.org/2000/svg">

<defs>

<style>.cls-1{fill:#43c0b9;}.cls-2{fill:#2c9dd2;}</style>

</defs>

<g data-name="37. Teamwork" id="_37._Teamwork">

<path class="cls-1" d="M25,26a5,5,0,1,1,5-5A5.006,5.006,0,0,1,25,26Zm0-8a3,3,0,1,0,3,3A3,3,0,0,0,25,18Z"/>

<path class="cls-1" d="M22,32H20a1,1,0,0,1-.98-.8l-1-5a1,1,0,0,1,.533-1.091l3.6-1.8a1,1,0,1,1,.894,1.789L20.13,26.553,20.82,30H22a1,1,0,0,1,0,2Z"/>

<path class="cls-1" d="M30,32H26a1,1,0,0,1,0-2h3.18l.69-3.447L26.953,25.1a1,1,0,1,1,.894-1.789l3.6,1.8A1,1,0,0,1,31.98,26.2l-1,5A1,1,0,0,1,30,32Z"/>

<path class="cls-1" d="M7,26a5,5,0,1,1,5-5A5.006,5.006,0,0,1,7,26Zm0-8a3,3,0,1,0,3,3A3,3,0,0,0,7,18Z"/>

<path class="cls-1" d="M4,32H2a1,1,0,0,1-.98-.8l-1-5a1,1,0,0,1,.533-1.091l3.6-1.8A1,1,0,1,1,5.047,25.1L2.13,26.553,2.82,30H4a1,1,0,0,1,0,2Z"/>

<path class="cls-1" d="M12,32H8a1,1,0,0,1,0-2h3.18l.69-3.447L8.953,25.1a1,1,0,1,1,.894-1.789l3.6,1.8A1,1,0,0,1,13.98,26.2l-1,5A1,1,0,0,1,12,32Z"/>

</g>

</svg>